<svg width="335" height="68" viewBox="0 0 335 68" fill="none" xmlns="http://www.w3.org/2000/svg">
<rect width="317" height="68" fill="white"/>
<path fill-rule="evenodd" clip-rule="evenodd" d="M1.77622 8.31117C4.79777 4.14633 10.6235 3.21951 14.7883 6.24106C15.1079 6.47292 15.4472 6.7174 15.804 6.97451C20.4481 10.3212 28.0607 15.8071 33.9059 23.4468C40.4921 32.0551 45.124 43.7414 41.8953 58.45C40.7921 63.4758 35.8235 66.6557 30.7977 65.5524C25.772 64.4492 22.5921 59.4807 23.6953 54.4549C25.4976 46.2445 23.142 40.0428 19.1072 34.7693C14.9978 29.3982 9.45947 25.388 4.60981 21.8765C4.35329 21.6907 4.09869 21.5064 3.84632 21.3233C-0.318513 18.3017 -1.24533 12.476 1.77622 8.31117Z" fill="black"/>
<circle cx="50.1237" cy="12.1051" r="9.87566" fill="black"/>
<path d="M92.52 33.18C92.064 33.18 91.668 33.024 91.332 32.712C91.02 32.4 90.864 32.016 90.864 31.56V22.38L82.26 10.32C82.068 10.008 81.972 9.684 81.972 9.348C81.972 8.892 82.116 8.508 82.404 8.196C82.716 7.86 83.1 7.692 83.556 7.692C84.156 7.692 84.636 7.968 84.996 8.52L92.52 19.464L100.044 8.52C100.404 7.968 100.884 7.692 101.484 7.692C101.94 7.692 102.324 7.86 102.636 8.196C102.948 8.508 103.092 8.892 103.068 9.348C103.068 9.684 102.972 10.008 102.78 10.32L94.14 22.38V31.56C94.14 32.016 93.984 32.4 93.672 32.712C93.36 33.024 92.976 33.18 92.52 33.18ZM113.339 33.36C112.019 33.36 110.867 33.048 109.883 32.424C108.923 31.8 108.179 30.948 107.651 29.868C107.147 28.788 106.895 27.6 106.895 26.304V16.08C106.895 15.624 107.051 15.24 107.363 14.928C107.699 14.616 108.095 14.46 108.551 14.46C109.007 14.46 109.391 14.616 109.703 14.928C110.015 15.24 110.171 15.624 110.171 16.08V25.944C110.171 28.872 111.491 30.336 114.131 30.336C115.331 30.336 116.399 30.024 117.335 29.4C118.295 28.776 119.195 27.936 120.035 26.88V16.08C120.035 15.624 120.191 15.24 120.503 14.928C120.839 14.616 121.235 14.46 121.691 14.46C122.147 14.46 122.531 14.616 122.843 14.928C123.155 15.24 123.311 15.624 123.311 16.08V31.524C123.311 31.98 123.155 32.376 122.843 32.712C122.531 33.024 122.147 33.18 121.691 33.18C121.235 33.18 120.839 33.024 120.503 32.712C120.191 32.376 120.035 31.98 120.035 31.524V30.048C119.123 31.056 118.139 31.86 117.083 32.46C116.027 33.06 114.779 33.36 113.339 33.36ZM133.333 33.18C132.877 33.18 132.493 33.024 132.181 32.712C131.869 32.4 131.713 32.016 131.713 31.56V8.196C131.713 7.74 131.869 7.356 132.181 7.044C132.493 6.708 132.877 6.54 133.333 6.54C133.789 6.54 134.173 6.708 134.485 7.044C134.821 7.356 134.989 7.74 134.989 8.196V22.92L143.557 15C143.917 14.688 144.277 14.532 144.637 14.532C145.189 14.532 145.585 14.688 145.825 15C146.089 15.312 146.221 15.684 146.221 16.116C146.221 16.524 146.017 16.932 145.609 17.34L140.425 21.984L146.941 30.624C147.181 30.936 147.301 31.26 147.301 31.596C147.301 32.076 147.145 32.46 146.833 32.748C146.521 33.036 146.125 33.18 145.645 33.18C145.405 33.18 145.165 33.12 144.925 33C144.685 32.88 144.481 32.712 144.313 32.496L138.121 24.072L134.989 26.916V31.56C134.989 32.016 134.821 32.4 134.485 32.712C134.173 33.024 133.789 33.18 133.333 33.18ZM160.366 33.36C156.862 33.36 155.11 31.776 155.11 28.608V17.448H152.554C152.362 17.448 152.194 17.388 152.05 17.268C151.93 17.124 151.87 16.956 151.87 16.764C151.87 16.524 151.978 16.32 152.194 16.152L157.09 11.364C157.306 11.148 157.51 11.04 157.702 11.04C157.894 11.04 158.05 11.112 158.17 11.256C158.314 11.4 158.386 11.568 158.386 11.76V14.64H162.454C162.862 14.64 163.198 14.772 163.462 15.036C163.726 15.3 163.858 15.636 163.858 16.044C163.858 16.428 163.726 16.764 163.462 17.052C163.198 17.316 162.862 17.448 162.454 17.448H158.386V28.32C158.386 29.256 158.602 29.856 159.034 30.12C159.49 30.36 160.054 30.48 160.726 30.48C161.206 30.48 161.686 30.408 162.166 30.264C162.262 30.24 162.358 30.216 162.454 30.192C162.574 30.168 162.718 30.156 162.886 30.156C163.222 30.156 163.522 30.288 163.786 30.552C164.05 30.792 164.182 31.092 164.182 31.452C164.182 32.004 163.906 32.424 163.354 32.712C162.418 33.144 161.422 33.36 160.366 33.36ZM172.024 10.896C171.52 10.896 171.088 10.716 170.728 10.356C170.368 9.996 170.188 9.564 170.188 9.06V8.916C170.188 8.412 170.368 7.98 170.728 7.62C171.088 7.26 171.52 7.08 172.024 7.08H172.24C172.744 7.08 173.176 7.26 173.536 7.62C173.896 7.98 174.076 8.412 174.076 8.916V9.06C174.076 9.564 173.896 9.996 173.536 10.356C173.176 10.716 172.744 10.896 172.24 10.896H172.024ZM172.096 33.18C171.64 33.18 171.256 33.024 170.944 32.712C170.632 32.4 170.476 32.016 170.476 31.56V16.116C170.476 15.66 170.632 15.276 170.944 14.964C171.256 14.628 171.64 14.46 172.096 14.46C172.576 14.46 172.972 14.616 173.284 14.928C173.596 15.24 173.752 15.636 173.752 16.116V31.56C173.752 32.016 173.584 32.4 173.248 32.712C172.936 33.024 172.552 33.18 172.096 33.18ZM189.737 33.36C188.249 33.36 186.833 32.988 185.489 32.244C184.169 31.476 183.089 30.372 182.249 28.932C181.433 27.468 181.025 25.764 181.025 23.82C181.025 21.876 181.433 20.184 182.249 18.744C183.089 17.28 184.169 16.176 185.489 15.432C186.833 14.664 188.249 14.28 189.737 14.28C192.089 14.28 194.141 15.192 195.893 17.016V8.196C195.893 7.716 196.049 7.32 196.361 7.008C196.697 6.696 197.093 6.54 197.549 6.54C198.005 6.54 198.389 6.708 198.701 7.044C199.013 7.356 199.169 7.74 199.169 8.196V31.56C199.169 32.016 199.013 32.4 198.701 32.712C198.389 33.024 198.005 33.18 197.549 33.18C197.093 33.18 196.697 33.024 196.361 32.712C196.049 32.4 195.893 32.016 195.893 31.56V30.624C194.141 32.448 192.089 33.36 189.737 33.36ZM190.205 30.3C191.309 30.3 192.341 30.06 193.301 29.58C194.285 29.076 195.149 28.416 195.893 27.6V20.04C195.149 19.224 194.285 18.576 193.301 18.096C192.341 17.592 191.309 17.34 190.205 17.34C188.429 17.34 187.001 17.904 185.921 19.032C184.841 20.16 184.301 21.756 184.301 23.82C184.301 25.884 184.841 27.48 185.921 28.608C187.001 29.736 188.429 30.3 190.205 30.3ZM215.76 33.36C212.832 33.36 210.54 32.532 208.884 30.876C207.252 29.196 206.436 26.844 206.436 23.82C206.436 22.116 206.748 20.544 207.372 19.104C207.996 17.664 208.956 16.5 210.252 15.612C211.548 14.724 213.144 14.28 215.04 14.28C216.816 14.28 218.352 14.7 219.648 15.54C220.944 16.356 221.928 17.46 222.6 18.852C223.272 20.22 223.608 21.72 223.608 23.352C223.608 23.808 223.452 24.192 223.14 24.504C222.852 24.816 222.456 24.972 221.952 24.972H209.748C209.94 26.652 210.564 27.96 211.62 28.896C212.676 29.832 214.152 30.3 216.048 30.3C217.056 30.3 217.932 30.204 218.676 30.012C219.444 29.82 220.188 29.544 220.908 29.184C221.1 29.088 221.316 29.04 221.556 29.04C221.94 29.04 222.276 29.172 222.564 29.436C222.852 29.7 222.996 30.036 222.996 30.444C222.996 30.972 222.684 31.416 222.06 31.776C221.124 32.304 220.2 32.7 219.288 32.964C218.376 33.228 217.2 33.36 215.76 33.36ZM220.368 22.308C220.296 21.132 219.984 20.148 219.432 19.356C218.904 18.564 218.244 17.988 217.452 17.628C216.66 17.244 215.856 17.052 215.04 17.052C214.224 17.052 213.42 17.244 212.628 17.628C211.836 17.988 211.176 18.564 210.648 19.356C210.12 20.148 209.82 21.132 209.748 22.308H220.368ZM235.322 33.36C234.266 33.36 233.282 33.144 232.37 32.712C231.482 32.28 230.774 31.656 230.246 30.84C229.718 30 229.454 29.04 229.454 27.96C229.454 26.184 230.15 24.768 231.542 23.712C232.958 22.656 235.022 22.128 237.734 22.128H242.09V21.84C242.09 20.256 241.694 19.116 240.902 18.42C240.134 17.724 238.922 17.376 237.266 17.376C236.354 17.376 235.538 17.448 234.818 17.592C234.122 17.736 233.342 17.952 232.478 18.24C232.286 18.288 232.13 18.312 232.01 18.312C231.65 18.312 231.338 18.18 231.074 17.916C230.81 17.652 230.678 17.328 230.678 16.944C230.678 16.296 230.99 15.84 231.614 15.576C233.654 14.712 235.73 14.28 237.842 14.28C239.498 14.28 240.89 14.616 242.018 15.288C243.17 15.96 244.01 16.836 244.538 17.916C245.09 18.972 245.366 20.124 245.366 21.372V31.56C245.366 32.016 245.198 32.4 244.862 32.712C244.55 33.024 244.166 33.18 243.71 33.18C243.254 33.18 242.87 33.024 242.558 32.712C242.246 32.4 242.09 32.016 242.09 31.56V30.624C240.314 32.448 238.058 33.36 235.322 33.36ZM236.546 30.48C237.602 30.48 238.622 30.228 239.606 29.724C240.59 29.196 241.418 28.548 242.09 27.78V24.756H238.166C234.542 24.756 232.73 25.704 232.73 27.6C232.73 28.464 233.018 29.16 233.594 29.688C234.194 30.216 235.178 30.48 236.546 30.48Z" fill="#0D0D0D"/>
<path d="M93.98 64H92.08L90.9 61.02H84.26L83.08 64H81.18L86.56 50.66H88.62L93.98 64ZM90.42 59.56L87.58 52.36L84.76 59.56H90.42ZM99.9241 64.24C97.0441 64.24 95.1041 62.02 95.1041 59.16C95.1041 56.3 97.0441 54.1 99.9241 54.1C101.684 54.1 102.724 54.82 103.464 55.78L102.464 56.68C101.824 55.8 101.004 55.44 100.004 55.44C97.9641 55.44 96.6641 57.02 96.6641 59.16C96.6641 61.3 97.9641 62.9 100.004 62.9C101.004 62.9 101.824 62.5 102.464 61.64L103.464 62.56C102.724 63.52 101.684 64.24 99.9241 64.24ZM109.846 64.24C106.966 64.24 105.026 62.02 105.026 59.16C105.026 56.3 106.966 54.1 109.846 54.1C111.606 54.1 112.646 54.82 113.386 55.78L112.386 56.68C111.746 55.8 110.926 55.44 109.926 55.44C107.886 55.44 106.586 57.02 106.586 59.16C106.586 61.3 107.886 62.9 109.926 62.9C110.926 62.9 111.746 62.5 112.386 61.64L113.386 62.56C112.646 63.52 111.606 64.24 109.846 64.24ZM119.888 64.24C117.008 64.24 114.948 62.18 114.948 59.16C114.948 56.36 116.948 54.1 119.708 54.1C122.628 54.1 124.348 56.38 124.348 59.28V59.66H116.548C116.668 61.48 117.928 63 120.008 63C121.128 63 122.228 62.56 123.008 61.76L123.728 62.74C122.748 63.7 121.448 64.24 119.888 64.24ZM122.868 58.54C122.848 57.12 121.888 55.34 119.688 55.34C117.628 55.34 116.608 57.08 116.528 58.54H122.868ZM128.277 64H126.777V50.66H128.277V64ZM135.65 64.24C132.77 64.24 130.71 62.18 130.71 59.16C130.71 56.36 132.71 54.1 135.47 54.1C138.39 54.1 140.11 56.38 140.11 59.28V59.66H132.31C132.43 61.48 133.69 63 135.77 63C136.89 63 137.99 62.56 138.77 61.76L139.49 62.74C138.51 63.7 137.21 64.24 135.65 64.24ZM138.63 58.54C138.61 57.12 137.65 55.34 135.45 55.34C133.39 55.34 132.37 57.08 132.29 58.54H138.63ZM144.039 64H142.539V54.34H144.039V55.88C144.819 54.88 145.939 54.12 147.259 54.12V55.66C147.079 55.64 146.899 55.62 146.679 55.62C145.739 55.62 144.479 56.38 144.039 57.16V64ZM156.681 64H155.181V62.9C154.401 63.78 153.281 64.24 151.981 64.24C150.361 64.24 148.621 63.14 148.621 61.04C148.621 58.86 150.341 57.86 151.981 57.86C153.301 57.86 154.401 58.28 155.181 59.16V57.42C155.181 56.14 154.141 55.4 152.741 55.4C151.581 55.4 150.641 55.8 149.781 56.74L149.081 55.7C150.121 54.62 151.361 54.1 152.941 54.1C155.001 54.1 156.681 55.02 156.681 57.36V64ZM152.541 63.16C153.581 63.16 154.601 62.76 155.181 61.96V60.12C154.601 59.34 153.581 58.94 152.541 58.94C151.121 58.94 150.141 59.82 150.141 61.04C150.141 62.28 151.121 63.16 152.541 63.16ZM162.167 64.24C160.727 64.24 160.007 63.42 160.007 61.98V55.66H158.407V54.34H160.007V51.7H161.527V54.34H163.487V55.66H161.527V61.66C161.527 62.38 161.847 62.9 162.487 62.9C162.927 62.9 163.307 62.7 163.507 62.48L163.947 63.62C163.567 63.98 163.027 64.24 162.167 64.24ZM169.966 64.24C167.086 64.24 165.026 62.18 165.026 59.16C165.026 56.36 167.026 54.1 169.786 54.1C172.706 54.1 174.426 56.38 174.426 59.28V59.66H166.626C166.746 61.48 168.006 63 170.086 63C171.206 63 172.306 62.56 173.086 61.76L173.806 62.74C172.826 63.7 171.526 64.24 169.966 64.24ZM172.946 58.54C172.926 57.12 171.966 55.34 169.766 55.34C167.706 55.34 166.686 57.08 166.606 58.54H172.946ZM177.519 64.2C176.919 64.2 176.419 63.7 176.419 63.1C176.419 62.5 176.919 62 177.519 62C178.119 62 178.619 62.5 178.619 63.1C178.619 63.7 178.119 64.2 177.519 64.2ZM188.243 64H186.583V50.66H188.243V64ZM199.329 64H197.849V57.68C197.849 55.96 196.969 55.44 195.669 55.44C194.489 55.44 193.389 56.16 192.809 56.94V64H191.309V54.34H192.809V55.74C193.489 54.92 194.809 54.1 196.269 54.1C198.269 54.1 199.329 55.12 199.329 57.22V64ZM210.364 64H208.884V57.68C208.884 55.96 208.004 55.44 206.704 55.44C205.524 55.44 204.424 56.16 203.844 56.94V64H202.344V54.34H203.844V55.74C204.524 54.92 205.844 54.1 207.304 54.1C209.304 54.1 210.364 55.12 210.364 57.22V64ZM217.599 64.24C214.659 64.24 212.819 61.96 212.819 59.16C212.819 56.36 214.659 54.1 217.599 54.1C220.539 54.1 222.379 56.36 222.379 59.16C222.379 61.96 220.539 64.24 217.599 64.24ZM217.599 62.9C219.659 62.9 220.799 61.14 220.799 59.16C220.799 57.2 219.659 55.44 217.599 55.44C215.539 55.44 214.399 57.2 214.399 59.16C214.399 61.14 215.539 62.9 217.599 62.9ZM229.044 64H227.404L223.384 54.34H225.024L228.224 62.26L231.444 54.34H233.064L229.044 64ZM242.169 64H240.669V62.9C239.889 63.78 238.769 64.24 237.469 64.24C235.849 64.24 234.109 63.14 234.109 61.04C234.109 58.86 235.829 57.86 237.469 57.86C238.789 57.86 239.889 58.28 240.669 59.16V57.42C240.669 56.14 239.629 55.4 238.229 55.4C237.069 55.4 236.129 55.8 235.269 56.74L234.569 55.7C235.609 54.62 236.849 54.1 238.429 54.1C240.489 54.1 242.169 55.02 242.169 57.36V64ZM238.029 63.16C239.069 63.16 240.089 62.76 240.669 61.96V60.12C240.089 59.34 239.069 58.94 238.029 58.94C236.609 58.94 235.629 59.82 235.629 61.04C235.629 62.28 236.609 63.16 238.029 63.16ZM247.655 64.24C246.215 64.24 245.495 63.42 245.495 61.98V55.66H243.895V54.34H245.495V51.7H247.015V54.34H248.975V55.66H247.015V61.66C247.015 62.38 247.335 62.9 247.975 62.9C248.415 62.9 248.795 62.7 248.995 62.48L249.435 63.62C249.055 63.98 248.515 64.24 247.655 64.24ZM255.454 64.24C252.574 64.24 250.514 62.18 250.514 59.16C250.514 56.36 252.514 54.1 255.274 54.1C258.194 54.1 259.914 56.38 259.914 59.28V59.66H252.114C252.234 61.48 253.494 63 255.574 63C256.694 63 257.794 62.56 258.574 61.76L259.294 62.74C258.314 63.7 257.014 64.24 255.454 64.24ZM258.434 58.54C258.414 57.12 257.454 55.34 255.254 55.34C253.194 55.34 252.174 57.08 252.094 58.54H258.434ZM263.007 64.2C262.407 64.2 261.907 63.7 261.907 63.1C261.907 62.5 262.407 62 263.007 62C263.607 62 264.107 62.5 264.107 63.1C264.107 63.7 263.607 64.2 263.007 64.2ZM278.392 64.24C274.552 64.24 271.532 61.44 271.532 57.34C271.532 53.24 274.552 50.44 278.392 50.44C280.752 50.44 282.392 51.56 283.452 53.08L282.072 53.86C281.312 52.72 279.912 51.92 278.392 51.92C275.472 51.92 273.252 54.14 273.252 57.34C273.252 60.5 275.472 62.76 278.392 62.76C279.912 62.76 281.312 61.94 282.072 60.82L283.472 61.58C282.352 63.12 280.752 64.24 278.392 64.24ZM287.027 64H285.527V54.34H287.027V55.88C287.807 54.88 288.927 54.12 290.247 54.12V55.66C290.067 55.64 289.887 55.62 289.667 55.62C288.727 55.62 287.467 56.38 287.027 57.16V64ZM296.509 64.24C293.629 64.24 291.569 62.18 291.569 59.16C291.569 56.36 293.569 54.1 296.329 54.1C299.249 54.1 300.969 56.38 300.969 59.28V59.66H293.169C293.289 61.48 294.549 63 296.629 63C297.749 63 298.849 62.56 299.629 61.76L300.349 62.74C299.369 63.7 298.069 64.24 296.509 64.24ZM299.489 58.54C299.469 57.12 298.509 55.34 296.309 55.34C294.249 55.34 293.229 57.08 293.149 58.54H299.489ZM310.938 64H309.438V62.9C308.658 63.78 307.538 64.24 306.238 64.24C304.618 64.24 302.878 63.14 302.878 61.04C302.878 58.86 304.598 57.86 306.238 57.86C307.558 57.86 308.658 58.28 309.438 59.16V57.42C309.438 56.14 308.398 55.4 306.998 55.4C305.838 55.4 304.898 55.8 304.038 56.74L303.338 55.7C304.378 54.62 305.618 54.1 307.198 54.1C309.258 54.1 310.938 55.02 310.938 57.36V64ZM306.798 63.16C307.838 63.16 308.858 62.76 309.438 61.96V60.12C308.858 59.34 307.838 58.94 306.798 58.94C305.378 58.94 304.398 59.82 304.398 61.04C304.398 62.28 305.378 63.16 306.798 63.16ZM316.425 64.24C314.985 64.24 314.265 63.42 314.265 61.98V55.66H312.665V54.34H314.265V51.7H315.785V54.34H317.745V55.66H315.785V61.66C315.785 62.38 316.105 62.9 316.745 62.9C317.185 62.9 317.565 62.7 317.765 62.48L318.205 63.62C317.825 63.98 317.285 64.24 316.425 64.24ZM324.224 64.24C321.344 64.24 319.284 62.18 319.284 59.16C319.284 56.36 321.284 54.1 324.044 54.1C326.964 54.1 328.684 56.38 328.684 59.28V59.66H320.884C321.004 61.48 322.264 63 324.344 63C325.464 63 326.564 62.56 327.344 61.76L328.064 62.74C327.084 63.7 325.784 64.24 324.224 64.24ZM327.204 58.54C327.184 57.12 326.224 55.34 324.024 55.34C321.964 55.34 320.944 57.08 320.864 58.54H327.204ZM331.777 64.2C331.177 64.2 330.677 63.7 330.677 63.1C330.677 62.5 331.177 62 331.777 62C332.377 62 332.877 62.5 332.877 63.1C332.877 63.7 332.377 64.2 331.777 64.2Z" fill="#0D0D0D"/>
</svg>
